. 
  
http://www.torrentday.com/        :     The Hottest Private Tracker On The Net!!!
 
http://www.torrentday.com          :     Once & For all ;)


               www . TorrentDay . Com 

(((((((((((((= Enjoy No RAR releases =))))))))))))))))))))


...................................NFO:....................................

.[img]http://img508.imageshack.us/img508/5010/posteren.jpg[/img]

[color=red][size=4][b]Middle.Men.2009.DVDRiP.XViD.AC3.NiTR0[/b][/size][/color]

Source: R1 NTSC DVD9
Runtime: 112 min
Audio: English 5.1
Subtitles: NoNe
IMDB: http://www.imdb.com/title/tt1251757/

[color=red][size=3][b]General[/b][/size][/color]
Complete name                    : Middle.Men.2009.DVDRiP.XViD.AC3.NiTR0.avi
Format                           : AVI
Format/Info                      : Audio Video Interleave
Format profile                   : OpenDML
Format settings                  : rec
File size                        : 1.38 GiB
Duration                         : 1h 52mn
Overall bit rate                 : 1 756 Kbps

[color=red][size=3][b]Video[/b][/size][/color]
Format                           : MPEG-4 Visual
Format profile                   : Advanced Simple@L5
Format settings, BVOP            : 2
Format settings, QPel            : No
Format settings, GMC             : No warppoints
Format settings, Matrix          : Default (H.263)
Muxing mode                      : Packed bitstream
Codec ID                         : XVID
Duration                         : 1h 52mn
Bit rate                         : 1 303 Kbps
Width                            : 720 pixels
Height                           : 304 pixels
Display aspect ratio             : 2.35:1
Frame rate                       : 23.976 fps
Scan type                        : Progressive
Stream size                      : 1.02 GiB (74%)

[color=red][size=3][b]Audio[/b][/size][/color]
Format                           : AC-3
Format/Info                      : Audio Coding 3
Mode extension                   : CM (complete main)
Duration                         : 1h 52mn
Bit rate mode                    : Constant
Bit rate                         : 448 Kbps
Channel(s)                       : 6 channels
Channel positions                : Front: L C R, Side: L R, LFE
Sampling rate                    : 48.0 KHz
Bit depth                        : 16 bits
Stream size                      : 359 MiB (26%)
Alignment                        : Aligned on interleaves
Interleave, duration             : 64 ms (1.53 video frames)
Interleave, preload duration     : 512 ms

[color=red][size=3][b]Plot:[/b][/size][/color]
Chronicles Jack Harris, one of the pioneers of internet commerce, as he wrestles with his morals and struggles not to drown in a sea of conmen, mobsters, drug addicts and pornstars.

[color=red][size=3][b]Group Notes:[/b][/size][/color]
Special Thanks to HiTM4N

[color=red][size=3][b]Screens:[/b][/size][/color]
[img]http://img831.imageshack.us/img831/9449/81819742.png[/img]
[img]http://img508.imageshack.us/img508/7011/55269766.png[/img]